<?xml version="1.0" encoding="UTF-8"?>
<svg xmlns="http://www.w3.org/2000/svg" xmlns:xlink="http://www.w3.org/1999/xlink" viewBox="0 0 4000 1677.85">
  <defs>
    <style>
      .cls-1 {
        fill: url(#linear-gradient-2);
      }

      .cls-1, .cls-2 {
        mix-blend-mode: screen;
      }

      .cls-3 {
        isolation: isolate;
      }

      .cls-2 {
        fill: url(#linear-gradient-3);
      }

      .cls-4 {
        fill: url(#Orange_Yellow);
      }

      .cls-5 {
        fill: none;
      }

      .cls-6 {
        fill: url(#linear-gradient);
      }

      .cls-7 {
        fill: url(#linear-gradient-4);
      }

      .cls-8 {
        fill: #ffde17;
      }
    </style>
    <linearGradient id="linear-gradient" x1="1548.17" y1="842.54" x2="3030.56" y2="842.54" gradientUnits="userSpaceOnUse">
      <stop offset="0" stop-color="#fff33b"/>
      <stop offset=".03" stop-color="#fee62d"/>
      <stop offset=".08" stop-color="#fdd51b"/>
      <stop offset=".13" stop-color="#fdca0f"/>
      <stop offset=".18" stop-color="#fdc70c"/>
      <stop offset=".74" stop-color="#f3903f"/>
      <stop offset=".84" stop-color="#ed683c"/>
      <stop offset="1" stop-color="#e93e3a"/>
    </linearGradient>
    <linearGradient id="linear-gradient-2" x1="1696.42" y1="1043.44" x2="1717.58" y2="1043.44" xlink:href="#linear-gradient"/>
    <linearGradient id="linear-gradient-3" x1="2289.37" y1="547.43" x2="2872.46" y2="547.43" xlink:href="#linear-gradient"/>
    <linearGradient id="linear-gradient-4" x1="1707" y1="842.54" x2="2871.73" y2="842.54" xlink:href="#linear-gradient"/>
    <linearGradient id="Orange_Yellow" data-name="Orange, Yellow" x1="896.13" y1="842.54" x2="1349.54" y2="842.54" gradientUnits="userSpaceOnUse">
      <stop offset="0" stop-color="#fff33b"/>
      <stop offset=".04" stop-color="#fee62d"/>
      <stop offset=".12" stop-color="#fdd51b"/>
      <stop offset=".2" stop-color="#fdca0f"/>
      <stop offset=".28" stop-color="#fdc70c"/>
      <stop offset=".67" stop-color="#f3903f"/>
      <stop offset=".89" stop-color="#ed683c"/>
      <stop offset="1" stop-color="#e93e3a"/>
    </linearGradient>
  </defs>
  <g class="cls-3">
    <g id="Layer_2" data-name="Layer 2">
      <g id="Layer_1-2" data-name="Layer 1">
        <g>
          <rect class="cls-5" width="4000" height="1677.85"/>
          <g>
            <path class="cls-6" d="m2279.92,1592.78h-731.74v-986.78h0c175.44,0,317.65,143.95,317.65,321.53v343.72h415.59c231.28,0,425.89-184.33,431.36-418.37,5.64-241.09-186.48-439.05-423.42-439.05h-264.71c-175.44,0-317.65-143.95-317.65-321.53h582.36c411.13,0,745.14,340.56,741.16,757.63-3.95,413.03-342.54,742.85-750.61,742.85Z"/>
            <path class="cls-1" d="m1707,801.14c4.38,40.38,6.67,80.77,8.23,121.15,1.69,40.38,2.14,80.77,2.35,121.15-.19,40.38-.64,80.77-2.32,121.15-1.55,40.38-3.85,80.77-8.26,121.15-4.41-40.38-6.71-80.77-8.26-121.15-1.68-40.38-2.13-80.77-2.32-121.15.21-40.38.66-80.77,2.35-121.15,1.56-40.38,3.85-80.77,8.23-121.15Z"/>
            <path class="cls-2" d="m2871.73,842.54c-4.25-77.18-21.88-152.68-51.97-222.38-30.27-69.59-73.03-133.38-126.09-186.87-52.86-53.68-115.88-96.96-184.63-127.6-68.86-30.44-143.44-48.3-219.69-52.63,76.25-4.05,154.06,8.43,226.02,37.18,72.13,28.35,138.23,72.51,193.26,127.9,54.7,55.72,98.33,122.63,126.33,195.63,28.39,72.83,40.74,151.59,36.76,228.76Z"/>
            <path class="cls-7" d="m2871.73,842.54c0-325.56-260.73-589.47-582.37-589.47h-539.76c54.93,96.08,157.5,160.76,275.05,160.76h264.71c236.94,0,429.06,197.96,423.42,439.05-5.47,234.04-200.08,418.37-431.36,418.37h-415.59v-343.72c0-118.99-63.91-222.81-158.83-278.41v782.9h582.37c321.63,0,582.37-263.92,582.37-589.47h0Z"/>
          </g>
          <path class="cls-8" d="m746.02,1345.57c-18.11,25.03-45.03,38.14-72.25,38.14-19.77,0-39.75-6.94-56.55-21.26l-416.52-354.95c-22.14-18.86-35.12-47.77-35.12-78.37s12.98-59.51,35.12-78.37l416.52-354.95c39.9-33.94,97.5-26.4,128.79,16.88,31.24,43.28,24.3,105.91-15.54,139.91l-324.55,276.53,324.55,276.53c39.84,34,46.79,96.63,15.54,139.91Z"/>
          <path class="cls-8" d="m3834.03,922c0,32.4-13.29,63.01-36.12,82.98l-428.39,375.83c-17.28,15.16-37.77,22.51-58.16,22.51-27.99,0-55.68-13.88-74.31-40.39-32.13-45.83-24.99-112.14,15.99-148.14l333.8-292.79-333.8-292.79c-40.98-35.99-48.12-102.31-15.99-148.14,32.19-45.83,91.49-53.81,132.47-17.88l428.39,375.83c22.82,19.96,36.12,50.58,36.12,82.98Z"/>
          <path class="cls-4" d="m1346.39,255.53l-119.65,587.01-132.41,649.55c-11.6,57.07-52.57,95.02-97.46,95.02-8.23,0-16.62-1.24-24.96-3.94-53.89-17.31-86.41-86.02-72.61-153.61l119.65-587.01,132.36-649.55c13.8-67.52,68.63-108.31,122.47-91.07,53.89,17.31,86.36,86.09,72.61,153.61Z"/>
        </g>
      </g>
    </g>
  </g>
</svg>